# xmcd CD database file
#
# Track frame offsets:
#	150
#	31300
#	58287
#	86115
#	108802
#	131265
#	145740
#	165395
#	200222
#	229907
#
# Disc length: 3591 seconds
#
# Revision: 2
# Processed by: cddbd v1.4PL0 Copyright (c) Steve Scherf et al.
# Submitted via: CDex 1.40Release
#
DISCID=870e050a
DTITLE=Gary Moore - Best Blues Ballads
DYEAR=1900
DGENRE=
TTITLE0=Parisienne Walkways -live
TTITLE1=All Time Low
TTITLE2=Still Got The Blues (For You)
TTITLE3=Nothing's The Same
TTITLE4=Midnight Blues
TTITLE5=Johnny Boy
TTITLE6=Junpin' At Shadows
TTITLE7=As The Years Go Passing By
TTITLE8=Story Of The Blues
TTITLE9=Cold, Cold Feeling (Bonus Track)
EXTD=
EXTT0=
EXTT1=
EXTT2=
EXTT3=
EXTT4=
EXTT5=
EXTT6=
EXTT7=
EXTT8=
EXTT9=
PLAYORDER=
